<svg xmlns="http://www.w3.org/2000/svg" width="366" height="348" viewBox="0 0 366 348">
  <g id="组_7" data-name="组 7" transform="translate(-301 -103)">
    <g id="矩形_12" data-name="矩形 12" transform="translate(322 103)" fill="#fff" stroke="#707070" stroke-width="1">
      <rect width="345" height="348" rx="36" stroke="none"/>
      <rect x="0.5" y="0.5" width="344" height="347" rx="35.5" fill="none"/>
    </g>
    <g id="椭圆_1" data-name="椭圆 1" transform="translate(301 256)" fill="#fff" stroke="#707070" stroke-width="1">
      <circle cx="21.5" cy="21.5" r="21.5" stroke="none"/>
      <circle cx="21.5" cy="21.5" r="21" fill="none"/>
    </g>
    <g id="椭圆_3" data-name="椭圆 3" transform="translate(301 347)" fill="#fff" stroke="#707070" stroke-width="1">
      <circle cx="21.5" cy="21.5" r="21.5" stroke="none"/>
      <circle cx="21.5" cy="21.5" r="21" fill="none"/>
    </g>
    <g id="椭圆_2" data-name="椭圆 2" transform="translate(301 165)" fill="#23f831" stroke="#707070" stroke-width="1">
      <circle cx="21.5" cy="21.5" r="21.5" stroke="none"/>
      <circle cx="21.5" cy="21.5" r="21" fill="none"/>
    </g>
    <rect id="矩形_17" data-name="矩形 17" width="24.617" height="5.304" transform="translate(318.25 194.007) rotate(-45)" fill="#fff"/>
    <rect id="矩形_18" data-name="矩形 18" width="12.617" height="5.304" transform="translate(316.657 185.086) rotate(45)" fill="#fff"/>
    <g id="组_4" data-name="组 4" transform="translate(-343 -96)">
      <g id="矩形_13" data-name="矩形 13" transform="translate(718 263)" fill="#f18de3" stroke="#707070" stroke-width="1">
        <rect width="270" height="10" rx="5" stroke="none"/>
        <rect x="0.5" y="0.5" width="269" height="9" rx="4.5" fill="none"/>
      </g>
      <g id="矩形_14" data-name="矩形 14" transform="translate(718 283)" fill="#f18de3" stroke="#707070" stroke-width="1">
        <rect width="81" height="10" rx="5" stroke="none"/>
        <rect x="0.5" y="0.5" width="80" height="9" rx="4.5" fill="none"/>
      </g>
      <g id="矩形_15" data-name="矩形 15" transform="translate(975 283)" fill="#f18de3" stroke="#707070" stroke-width="1">
        <rect width="13" height="10" rx="5" stroke="none"/>
        <rect x="0.5" y="0.5" width="12" height="9" rx="4.5" fill="none"/>
      </g>
      <g id="矩形_16" data-name="矩形 16" transform="translate(959 283)" fill="#f18de3" stroke="#707070" stroke-width="1">
        <rect width="13" height="10" rx="5" stroke="none"/>
        <rect x="0.5" y="0.5" width="12" height="9" rx="4.5" fill="none"/>
      </g>
    </g>
    <g id="组_5" data-name="组 5" transform="translate(-343 -3)">
      <g id="矩形_13-2" data-name="矩形 13" transform="translate(718 263)" fill="#f6d886" stroke="#707070" stroke-width="1">
        <rect width="270" height="10" rx="5" stroke="none"/>
        <rect x="0.5" y="0.5" width="269" height="9" rx="4.5" fill="none"/>
      </g>
      <g id="矩形_14-2" data-name="矩形 14" transform="translate(718 283)" fill="#f6d886" stroke="#707070" stroke-width="1">
        <rect width="81" height="10" rx="5" stroke="none"/>
        <rect x="0.5" y="0.5" width="80" height="9" rx="4.5" fill="none"/>
      </g>
      <g id="矩形_15-2" data-name="矩形 15" transform="translate(975 283)" fill="#f6d886" stroke="#707070" stroke-width="1">
        <rect width="13" height="10" rx="5" stroke="none"/>
        <rect x="0.5" y="0.5" width="12" height="9" rx="4.5" fill="none"/>
      </g>
      <g id="矩形_16-2" data-name="矩形 16" transform="translate(959 283)" fill="#f6d886" stroke="#707070" stroke-width="1">
        <rect width="13" height="10" rx="5" stroke="none"/>
        <rect x="0.5" y="0.5" width="12" height="9" rx="4.5" fill="none"/>
      </g>
    </g>
    <g id="组_6" data-name="组 6" transform="translate(-343 90)">
      <g id="矩形_13-3" data-name="矩形 13" transform="translate(718 263)" fill="#83e5ce" stroke="#707070" stroke-width="1">
        <rect width="270" height="10" rx="5" stroke="none"/>
        <rect x="0.5" y="0.5" width="269" height="9" rx="4.5" fill="none"/>
      </g>
      <g id="矩形_14-3" data-name="矩形 14" transform="translate(718 283)" fill="#83e5ce" stroke="#707070" stroke-width="1">
        <rect width="81" height="10" rx="5" stroke="none"/>
        <rect x="0.5" y="0.5" width="80" height="9" rx="4.5" fill="none"/>
      </g>
      <g id="矩形_15-3" data-name="矩形 15" transform="translate(975 283)" fill="#83e5ce" stroke="#707070" stroke-width="1">
        <rect width="13" height="10" rx="5" stroke="none"/>
        <rect x="0.5" y="0.5" width="12" height="9" rx="4.5" fill="none"/>
      </g>
      <g id="矩形_16-3" data-name="矩形 16" transform="translate(959 283)" fill="#83e5ce" stroke="#707070" stroke-width="1">
        <rect width="13" height="10" rx="5" stroke="none"/>
        <rect x="0.5" y="0.5" width="12" height="9" rx="4.5" fill="none"/>
      </g>
    </g>
  </g>
</svg>
